PathFileType	4	(X/Y/Z)	Trial5455_Both_Hips_markers_cropped.trc
DataRate	CameraRate	NumFrames	NumMarkers	Units	OrigDataRate	OrigDataStartFrame	OrigNumFrames																																																																																													
200	200	7	27	m	200	37	101
Frame#	Time	R_ASIS			L_ASIS			Sacral			L_Thigh_Superior			L_Thigh_Inferior			L_Thigh_Lateral			L_Shank_Superior			L_Shank_Inferior			L_Shank_Lateral			L_Heel			L_Midfoot_Superior			L_Midfoot_Lateral			L_Toe			R_Thigh_Superior			R_Thigh_Inferior			R_Thigh_Lateral			R_Shank_Superior			R_Shank_Lateral			R_Shank_Inferior			R_Heel			R_Midfoot_Superior			R_Midfoot_Lateral			R_Toe
		X1	Y1	Z1	X2	Y2	Z2	X3	Y3	Z3	X4	Y4	Z4	X5	Y5	Z5	X6	Y6	Z6	X7	Y7	Z7	X8	Y8	Z8	X9	Y9	Z9	X10	Y10	Z10	X11	Y11	Z11	X12	Y12	Z12	X13	Y13	Z13	X14	Y14	Z14	X15	Y15	Z15	X16	Y16	Z16	X17	Y17	Z17	X18	Y18	Z18	X19	Y19	Z19	X20	Y20	Z20	X21	Y21	Z21	X22	Y22	Z22	X23	Y23	Z23

38	   0.185	   -0.63701178215713	    0.91640247437477	   -0.38710672631727	   -0.66162962372107	    1.01143863056446	   -0.64022058866544	   -0.85478696180789	    1.04061925708449	   -0.47008957730839	   -0.62644461184818	    0.84251544071981	   -0.71483764663553	   -0.61960318689526	    0.68495564306015	   -0.82325578394203	   -0.71819793346380	    0.77292113640302	   -0.81563547801298	   -0.64177980359790	    0.56348264181377	   -0.89456779627092	   -0.66374866621304	    0.36195433007892	   -0.99207226606543	   -0.74114763764163	    0.47790128050395	   -0.97495684779899	   -0.75992158086032	    0.18114364545856	   -1.01920796787941	   -0.63799890060756	    0.29754298319910	   -1.06520594876406	   -0.71770798281892	    0.23702865110784	   -1.10098629641019	   -0.52343350938401	    0.30355758886297	   -1.14266335095120	   -0.61922783532245	    0.73018096278815	   -0.43320927374566	   -0.63456371738751	    0.57095658709446	   -0.45873751258188	   -0.70957237815462	    0.62045918087610	   -0.37748842680330	   -0.66216847054844	    0.39782920072955	   -0.45549730002024	   -0.68520444935693	    0.19922798208889	   -0.46873614665076	   -0.73472776558855	    0.28800744054447	   -0.40081218159325	   -0.81287347804237	    0.03597443898217	   -0.51270834195289	   -0.64310468948552	    0.09018833456232	   -0.46952724186753	   -0.73237773872795	    0.02860451317338	   -0.43548581971820	   -0.52361237269742	    0.03855371817815	   -0.43867800217497
39	   0.190	   -0.63978858623283	    0.91408198703029	   -0.38793496728718	   -0.66676666456830	    1.02100934291563	   -0.63729940037502	   -0.85671808899979	    1.04457946917711	   -0.46311060627621	   -0.63583017516910	    0.87053690132266	   -0.73202051769245	   -0.63038602582039	    0.72948059235714	   -0.86210064310160	   -0.73091807134720	    0.81305251092817	   -0.83835636395766	   -0.64829715706251	    0.61988318459225	   -0.94824062173653	   -0.65961245648487	    0.43364043426701	   -1.07438579237250	   -0.74430639660983	    0.54141320027528	   -1.03877997394356	   -0.74459556092258	    0.25290196837884	   -1.12630289276840	   -0.63197427735056	    0.38228840635432	   -1.15760550994123	   -0.70915183704534	    0.32329276749661	   -1.19996252261957	   -0.52103330415955	    0.40699511093872	   -1.23696410098409	   -0.62289422362085	    0.73046066291253	   -0.43529246638707	   -0.63735495627960	    0.57106533697538	   -0.46093319722324	   -0.71244593788859	    0.62005280604288	   -0.37929080450754	   -0.66396610361359	    0.39833777500562	   -0.45704264836421	   -0.68578390064896	    0.19955586864486	   -0.46960835158184	   -0.73590488599691	    0.28830001967218	   -0.40193922821875	   -0.81263077627813	    0.03604443923224	   -0.51271016372398	   -0.64289542384064	    0.09036645804986	   -0.46977430911223	   -0.73212892831926	    0.02879793178214	   -0.43553670803261	   -0.52339270856349	    0.03884655663719	   -0.43884040978984
40	   0.195	   -0.64234268542376	    0.91210279344456	   -0.38918021171862	   -0.67327925642105	    1.02970441151462	   -0.63454016357936	   -0.85903122348892	    1.04790331160549	   -0.45476074651448	   -0.64466538151959	    0.89675773992414	   -0.74182634601138	   -0.63921640793037	    0.77147883942574	   -0.88858604859343	   -0.74088311732235	    0.85001464019200	   -0.85338440256441	   -0.65240737803309	    0.67415689661325	   -0.98720473646663	   -0.65234688846019	    0.50416790827605	   -1.13765940304152	   -0.74360814185503	    0.60256037910217	   -1.08821166276683	   -0.72643107031647	    0.32575113480432	   -1.21345737174521	   -0.62201656933156	    0.46535807514494	   -1.22811886582445	   -0.69620876056870	    0.40815723528251	   -1.27767612929996	   -0.51385456635849	    0.50719393757012	   -1.30530534110353	   -0.62637040842069	    0.73102619068122	   -0.43775962385822	   -0.63995354770888	    0.57145690755847	   -0.46320678804779	   -0.71458812513693	    0.61966847219988	   -0.38062219329167	   -0.66556942420034	    0.39879440868702	   -0.45853967978910	   -0.68606462630504	    0.19992271587577	   -0.47048785530242	   -0.73667601528817	    0.28856869374958	   -0.40287077160325	   -0.81228746793057	    0.03615378186598	   -0.51267524644029	   -0.64254330975373	    0.09057437462653	   -0.47008024446580	   -0.73173828887756	    0.02901264538423	   -0.43558183588813	   -0.52307259678929	    0.03916319661097	   -0.43906246947804
41	   0.200	   -0.64452121733697	    0.91053079913324	   -0.39041218808856	   -0.68069426378474	    1.03603450538894	   -0.63212510681793	   -0.86147943678696	    1.05009799611443	   -0.44581042870910	   -0.65247248850898	    0.91753942395099	   -0.74522091012787	   -0.64540749507249	    0.80455557949471	   -0.90288042968432	   -0.74816277930857	    0.87815942029573	   -0.86074096796329	   -0.65404852528660	    0.71729914725620	   -1.01021240629201	   -0.64340330179144	    0.56100059680307	   -1.17790236356029	   -0.74019959970725	    0.65075953060655	   -1.11974636368249	   -0.70781105451148	    0.38536794713837	   -1.27223446242928	   -0.61026980860575	    0.53213321696900	   -1.27274703048663	   -0.68161885395838	    0.47627867148852	   -1.32829005818273	   -0.50431353026732	    0.58742097785263	   -1.34632068224651	   -0.62947234708982	    0.73152948154124	   -0.43983629609537	   -0.64229107288745	    0.57198723783799	   -0.46492141740946	   -0.71595529902474	    0.61930700194430	   -0.38093977507623	   -0.66695712253581	    0.39908123700013	   -0.45960713296851	   -0.68619056647898	    0.20019493589422	   -0.47119976881739	   -0.73700071902816	    0.28864939041199	   -0.40333591902791	   -0.81204316179331	    0.03622652016481	   -0.51261909693847	   -0.64225047818175	    0.09068841745701	   -0.47039662515627	   -0.73138878660019	    0.02912523596041	   -0.43561856601118	   -0.52282508358120	    0.03935205425714	   -0.43929016386339
42	   0.205	   -0.64628148359492	    0.90922144631867	   -0.39069379077810	   -0.68818059239898	    1.03876443955979	   -0.62976798074766	   -0.86369337173912	    1.05090718053911	   -0.43695665213391	   -0.65889514838654	    0.92974228323658	   -0.74364048075892	   -0.64911405641874	    0.82335823612585	   -0.90639636566237	   -0.75321926664075	    0.89300561984747	   -0.86120887902751	   -0.65399202241610	    0.74173623037753	   -1.01801683761158	   -0.63521462520176	    0.59323112755920	   -1.19448950033703	   -0.73608593853596	    0.67704335006485	   -1.13246839083951	   -0.69231008304821	    0.41883658377189	   -1.29885300694612	   -0.59981230658619	    0.56999373303182	   -1.29132200644274	   -0.66899012317528	    0.51430934920135	   -1.35024343055649	   -0.49547797425215	    0.63344239149268	   -1.36234941251243	   -0.63202522201811	    0.73149317819140	   -0.44033673234201	   -0.64447044041761	    0.57235363212161	   -0.46525738771907	   -0.71659047452445	    0.61890190915473	   -0.37948040850069	   -0.66838841614803	    0.39901276628865	   -0.45962442000855	   -0.68662209497582	    0.20015602539834	   -0.47144728039839	   -0.73724900721099	    0.28825938649162	   -0.40286202922863	   -0.81240009162141	    0.03608867334177	   -0.51256767780929	   -0.64248490435329	    0.09044666416637	   -0.47063199776164	   -0.73155365431931	    0.02887615856600	   -0.43564005317152	   -0.52307944902845	    0.03907329432630	   -0.43947016146022
43	   0.210	   -0.64757151501342	    0.90788625983644	   -0.38896156648969	   -0.69475506035431	    1.03715549620374	   -0.62701032637863	   -0.86533627947660	    1.05055106182552	   -0.42878742922684	   -0.66367302448957	    0.93150259092190	   -0.73828538276768	   -0.65082252355443	    0.82494899191356	   -0.90059587637276	   -0.75642319224628	    0.89249301940535	   -0.85572603915476	   -0.65325293881926	    0.74346347347601	   -1.01211110031598	   -0.63012694015441	    0.59497337190001	   -1.18869165742816	   -0.73316013366715	    0.67690695833331	   -1.12716333987932	   -0.68341769192851	    0.41918266727629	   -1.29335007527320	   -0.59335411488316	    0.57213264612217	   -1.28555705807397	   -0.66138825734827	    0.51520658211070	   -1.34468033620175	   -0.48965922731887	    0.63746728122433	   -1.35638701285237	   -0.63385720062161	    0.73047388766196	   -0.43814970063851	   -0.64671955594849	    0.57213784157462	   -0.46356732373948	   -0.71684038695709	    0.61825098759604	   -0.37581078065315	   -0.67031513787821	    0.39835189644059	   -0.45815681446757	   -0.68813816533908	    0.19949988943990	   -0.47101376586052	   -0.73823909987935	    0.28708099254817	   -0.40109217674658	   -0.81423047219523	    0.03545933744112	   -0.51257307233696	   -0.64402228004535	    0.08943956683371	   -0.47072011334180	   -0.73306322367891	    0.02787697783680	   -0.43567073743044	   -0.52458947141825	    0.03778078710225	   -0.43958381449650
44	   0.215	   -0.64813917464098	    0.90636335735806	   -0.38473557505020	   -0.69977156780100	    1.03117368301320	   -0.62361891512399	   -0.86623175161280	    1.04957446502174	   -0.42166733368458	   -0.66662552463756	    0.92282355804217	   -0.72972456090681	   -0.65070956573343	    0.80976413509021	   -0.88639694421606	   -0.75778664836314	    0.87734176370596	   -0.84485349913595	   -0.65223834484348	    0.72305121642805	   -0.99365243872880	   -0.62930308896180	    0.56697718381365	   -1.16207797018093	   -0.73221346056373	    0.65147035206735	   -1.10506508930130	   -0.68307800078007	    0.38750373506144	   -1.25774583604025	   -0.59217751036191	    0.53934548041099	   -1.25708058109401	   -0.66025647927643	    0.48011896077182	   -1.31340228778804	   -0.48775082418994	    0.60003487349084	   -1.32985307330170	   -0.63497866774970	    0.72823383791197	   -0.43297607657494	   -0.64941626600145	    0.57095266347936	   -0.45977096651454	   -0.71731041197517	    0.61709274787670	   -0.37012743762009	   -0.67331343206948	    0.39684277971896	   -0.45524164990709	   -0.69164920264093	    0.19787015817558	   -0.46987453820867	   -0.74094449223380	    0.28486210269698	   -0.39808829931183	   -0.81856892408472	    0.03403425959250	   -0.51271717710088	   -0.64777378209024	    0.08721507942489	   -0.47068282414067	   -0.73693489351272	    0.02573886821003	   -0.43578357267656	   -0.52827013538265	    0.03487934695256	   -0.43965236215139
